<mxfile host="app.diagrams.net" modified="2024-01-11T09:35:10.200Z" agent="Mozilla/5.0 (Windows NT 10.0; Win64; x64) AppleWebKit/537.36 (KHTML, like Gecko) Chrome/120.0.0.0 Safari/537.36" etag="tflSFKwZTNTu5bbsjeyL" version="22.1.17" type="github">
  <diagram name="Page-1" id="SAqp4qNK8b6NkA4JYdUY">
    <mxGraphModel dx="3350" dy="1215" grid="0" gridSize="10" guides="1" tooltips="1" connect="1" arrows="1" fold="1" page="0" pageScale="1" pageWidth="850" pageHeight="1100" math="0" shadow="0">
      <root>
        <mxCell id="0" />
        <mxCell id="1" parent="0" />
        <mxCell id="2K0EcX-tQgdoXk2rNR8u-175" value="" style="edgeStyle=none;curved=1;rounded=0;orthogonalLoop=1;jettySize=auto;html=1;fontSize=12;startSize=8;endSize=8;" edge="1" parent="1" source="2K0EcX-tQgdoXk2rNR8u-1" target="2K0EcX-tQgdoXk2rNR8u-172">
          <mxGeometry relative="1" as="geometry" />
        </mxCell>
        <mxCell id="2K0EcX-tQgdoXk2rNR8u-192" value="" style="edgeStyle=none;curved=1;rounded=0;orthogonalLoop=1;jettySize=auto;html=1;fontSize=12;startSize=8;endSize=8;" edge="1" parent="1" source="2K0EcX-tQgdoXk2rNR8u-1" target="2K0EcX-tQgdoXk2rNR8u-191">
          <mxGeometry relative="1" as="geometry" />
        </mxCell>
        <mxCell id="2K0EcX-tQgdoXk2rNR8u-201" value="1" style="edgeLabel;html=1;align=center;verticalAlign=middle;resizable=0;points=[];fontSize=16;" vertex="1" connectable="0" parent="2K0EcX-tQgdoXk2rNR8u-192">
          <mxGeometry x="-0.4113" y="2" relative="1" as="geometry">
            <mxPoint y="1" as="offset" />
          </mxGeometry>
        </mxCell>
        <mxCell id="2K0EcX-tQgdoXk2rNR8u-257" value="" style="edgeStyle=none;curved=1;rounded=0;orthogonalLoop=1;jettySize=auto;html=1;fontSize=12;startSize=8;endSize=8;" edge="1" parent="1" source="2K0EcX-tQgdoXk2rNR8u-1" target="2K0EcX-tQgdoXk2rNR8u-256">
          <mxGeometry relative="1" as="geometry" />
        </mxCell>
        <mxCell id="2K0EcX-tQgdoXk2rNR8u-267" value="" style="edgeStyle=none;curved=1;rounded=0;orthogonalLoop=1;jettySize=auto;html=1;fontSize=12;startSize=8;endSize=8;" edge="1" parent="1" source="2K0EcX-tQgdoXk2rNR8u-1" target="2K0EcX-tQgdoXk2rNR8u-266">
          <mxGeometry relative="1" as="geometry" />
        </mxCell>
        <mxCell id="2K0EcX-tQgdoXk2rNR8u-271" value="1" style="edgeLabel;html=1;align=center;verticalAlign=middle;resizable=0;points=[];fontSize=16;" vertex="1" connectable="0" parent="2K0EcX-tQgdoXk2rNR8u-267">
          <mxGeometry x="-0.7648" y="1" relative="1" as="geometry">
            <mxPoint as="offset" />
          </mxGeometry>
        </mxCell>
        <mxCell id="2K0EcX-tQgdoXk2rNR8u-273" style="edgeStyle=none;curved=1;rounded=0;orthogonalLoop=1;jettySize=auto;html=1;exitX=1;exitY=0;exitDx=0;exitDy=0;entryX=0;entryY=1;entryDx=0;entryDy=0;fontSize=12;startSize=8;endSize=8;" edge="1" parent="1" source="2K0EcX-tQgdoXk2rNR8u-1" target="2K0EcX-tQgdoXk2rNR8u-173">
          <mxGeometry relative="1" as="geometry" />
        </mxCell>
        <mxCell id="2K0EcX-tQgdoXk2rNR8u-1" value="Branch" style="whiteSpace=wrap;html=1;align=center;fontSize=16;" vertex="1" parent="1">
          <mxGeometry x="-438" y="702" width="100" height="40" as="geometry" />
        </mxCell>
        <mxCell id="2K0EcX-tQgdoXk2rNR8u-172" value="BranchID&amp;nbsp;" style="ellipse;whiteSpace=wrap;html=1;align=center;fontStyle=4;fontSize=16;" vertex="1" parent="1">
          <mxGeometry x="-440" y="616" width="100" height="40" as="geometry" />
        </mxCell>
        <mxCell id="2K0EcX-tQgdoXk2rNR8u-173" value="ContactNumber&amp;nbsp;&amp;nbsp;" style="ellipse;whiteSpace=wrap;html=1;align=center;fontSize=16;" vertex="1" parent="1">
          <mxGeometry x="-338" y="631" width="137" height="40" as="geometry" />
        </mxCell>
        <mxCell id="2K0EcX-tQgdoXk2rNR8u-174" value="Address" style="ellipse;whiteSpace=wrap;html=1;align=center;fontSize=16;" vertex="1" parent="1">
          <mxGeometry x="-546" y="641" width="100" height="40" as="geometry" />
        </mxCell>
        <mxCell id="2K0EcX-tQgdoXk2rNR8u-197" style="edgeStyle=none;curved=1;rounded=0;orthogonalLoop=1;jettySize=auto;html=1;exitX=0;exitY=0;exitDx=0;exitDy=0;entryX=1;entryY=0.5;entryDx=0;entryDy=0;fontSize=12;startSize=8;endSize=8;" edge="1" parent="1" source="2K0EcX-tQgdoXk2rNR8u-176" target="2K0EcX-tQgdoXk2rNR8u-194">
          <mxGeometry relative="1" as="geometry" />
        </mxCell>
        <mxCell id="2K0EcX-tQgdoXk2rNR8u-200" value="1" style="edgeLabel;html=1;align=center;verticalAlign=middle;resizable=0;points=[];fontSize=16;" vertex="1" connectable="0" parent="2K0EcX-tQgdoXk2rNR8u-197">
          <mxGeometry x="-0.4914" y="2" relative="1" as="geometry">
            <mxPoint as="offset" />
          </mxGeometry>
        </mxCell>
        <mxCell id="2K0EcX-tQgdoXk2rNR8u-203" value="" style="edgeStyle=none;curved=1;rounded=0;orthogonalLoop=1;jettySize=auto;html=1;fontSize=12;startSize=8;endSize=8;" edge="1" parent="1" source="2K0EcX-tQgdoXk2rNR8u-176" target="2K0EcX-tQgdoXk2rNR8u-178">
          <mxGeometry relative="1" as="geometry" />
        </mxCell>
        <mxCell id="2K0EcX-tQgdoXk2rNR8u-204" style="edgeStyle=none;curved=1;rounded=0;orthogonalLoop=1;jettySize=auto;html=1;exitX=0;exitY=0.25;exitDx=0;exitDy=0;fontSize=12;startSize=8;endSize=8;" edge="1" parent="1" source="2K0EcX-tQgdoXk2rNR8u-176" target="2K0EcX-tQgdoXk2rNR8u-180">
          <mxGeometry relative="1" as="geometry" />
        </mxCell>
        <mxCell id="2K0EcX-tQgdoXk2rNR8u-205" style="edgeStyle=none;curved=1;rounded=0;orthogonalLoop=1;jettySize=auto;html=1;exitX=0;exitY=0.5;exitDx=0;exitDy=0;fontSize=12;startSize=8;endSize=8;" edge="1" parent="1" source="2K0EcX-tQgdoXk2rNR8u-176" target="2K0EcX-tQgdoXk2rNR8u-177">
          <mxGeometry relative="1" as="geometry" />
        </mxCell>
        <mxCell id="2K0EcX-tQgdoXk2rNR8u-206" style="edgeStyle=none;curved=1;rounded=0;orthogonalLoop=1;jettySize=auto;html=1;exitX=0;exitY=1;exitDx=0;exitDy=0;fontSize=12;startSize=8;endSize=8;" edge="1" parent="1" source="2K0EcX-tQgdoXk2rNR8u-176" target="2K0EcX-tQgdoXk2rNR8u-179">
          <mxGeometry relative="1" as="geometry" />
        </mxCell>
        <mxCell id="2K0EcX-tQgdoXk2rNR8u-207" style="edgeStyle=none;curved=1;rounded=0;orthogonalLoop=1;jettySize=auto;html=1;exitX=0.25;exitY=1;exitDx=0;exitDy=0;fontSize=12;startSize=8;endSize=8;" edge="1" parent="1" source="2K0EcX-tQgdoXk2rNR8u-176" target="2K0EcX-tQgdoXk2rNR8u-181">
          <mxGeometry relative="1" as="geometry" />
        </mxCell>
        <mxCell id="2K0EcX-tQgdoXk2rNR8u-208" style="edgeStyle=none;curved=1;rounded=0;orthogonalLoop=1;jettySize=auto;html=1;exitX=0.75;exitY=0;exitDx=0;exitDy=0;fontSize=12;startSize=8;endSize=8;" edge="1" parent="1" source="2K0EcX-tQgdoXk2rNR8u-176" target="2K0EcX-tQgdoXk2rNR8u-182">
          <mxGeometry relative="1" as="geometry" />
        </mxCell>
        <mxCell id="2K0EcX-tQgdoXk2rNR8u-176" value="Satff" style="whiteSpace=wrap;html=1;align=center;fontSize=16;" vertex="1" parent="1">
          <mxGeometry x="-438" y="1088" width="100" height="40" as="geometry" />
        </mxCell>
        <mxCell id="2K0EcX-tQgdoXk2rNR8u-177" value="StaffID" style="ellipse;whiteSpace=wrap;html=1;align=center;fontStyle=4;fontSize=16;" vertex="1" parent="1">
          <mxGeometry x="-646" y="1071" width="100" height="40" as="geometry" />
        </mxCell>
        <mxCell id="2K0EcX-tQgdoXk2rNR8u-178" value="FullName" style="ellipse;whiteSpace=wrap;html=1;align=center;fontSize=16;" vertex="1" parent="1">
          <mxGeometry x="-617" y="1128" width="100" height="40" as="geometry" />
        </mxCell>
        <mxCell id="2K0EcX-tQgdoXk2rNR8u-179" value="Age" style="ellipse;whiteSpace=wrap;html=1;align=center;fontSize=16;" vertex="1" parent="1">
          <mxGeometry x="-583" y="1184" width="100" height="40" as="geometry" />
        </mxCell>
        <mxCell id="2K0EcX-tQgdoXk2rNR8u-180" value="Role&amp;nbsp;" style="ellipse;whiteSpace=wrap;html=1;align=center;fontSize=16;" vertex="1" parent="1">
          <mxGeometry x="-614" y="1000" width="100" height="40" as="geometry" />
        </mxCell>
        <mxCell id="2K0EcX-tQgdoXk2rNR8u-181" value="Address" style="ellipse;whiteSpace=wrap;html=1;align=center;fontSize=16;direction=south;" vertex="1" parent="1">
          <mxGeometry x="-449" y="1172" width="104" height="100" as="geometry" />
        </mxCell>
        <mxCell id="2K0EcX-tQgdoXk2rNR8u-182" value="Salary&amp;nbsp;" style="ellipse;whiteSpace=wrap;html=1;align=center;fontSize=16;" vertex="1" parent="1">
          <mxGeometry x="-340" y="1011" width="100" height="40" as="geometry" />
        </mxCell>
        <mxCell id="2K0EcX-tQgdoXk2rNR8u-183" value="" style="endArrow=classic;html=1;rounded=0;fontSize=12;startSize=8;endSize=8;curved=1;exitX=1.004;exitY=0.235;exitDx=0;exitDy=0;exitPerimeter=0;entryX=0;entryY=0;entryDx=0;entryDy=0;" edge="1" parent="1" source="2K0EcX-tQgdoXk2rNR8u-181" target="2K0EcX-tQgdoXk2rNR8u-187">
          <mxGeometry width="50" height="50" relative="1" as="geometry">
            <mxPoint x="-401" y="1234" as="sourcePoint" />
            <mxPoint x="-351" y="1184" as="targetPoint" />
          </mxGeometry>
        </mxCell>
        <mxCell id="2K0EcX-tQgdoXk2rNR8u-184" value="" style="endArrow=classic;html=1;rounded=0;fontSize=12;startSize=8;endSize=8;curved=1;exitX=1.016;exitY=0.83;exitDx=0;exitDy=0;exitPerimeter=0;entryX=0;entryY=0.5;entryDx=0;entryDy=0;" edge="1" parent="1" source="2K0EcX-tQgdoXk2rNR8u-181" target="2K0EcX-tQgdoXk2rNR8u-186">
          <mxGeometry width="50" height="50" relative="1" as="geometry">
            <mxPoint x="-401" y="1255" as="sourcePoint" />
            <mxPoint x="-329" y="1255" as="targetPoint" />
          </mxGeometry>
        </mxCell>
        <mxCell id="2K0EcX-tQgdoXk2rNR8u-186" value="Region" style="ellipse;whiteSpace=wrap;html=1;align=center;fontSize=16;direction=south;" vertex="1" parent="1">
          <mxGeometry x="-527" y="1303" width="88" height="100" as="geometry" />
        </mxCell>
        <mxCell id="2K0EcX-tQgdoXk2rNR8u-187" value="City" style="ellipse;whiteSpace=wrap;html=1;align=center;fontSize=16;rotation=5;direction=south;" vertex="1" parent="1">
          <mxGeometry x="-421" y="1287" width="40" height="100" as="geometry" />
        </mxCell>
        <mxCell id="2K0EcX-tQgdoXk2rNR8u-191" value="work" style="rhombus;whiteSpace=wrap;html=1;fontSize=16;" vertex="1" parent="1">
          <mxGeometry x="-428" y="842" width="80" height="80" as="geometry" />
        </mxCell>
        <mxCell id="2K0EcX-tQgdoXk2rNR8u-194" value="Mange" style="shape=rhombus;perimeter=rhombusPerimeter;whiteSpace=wrap;html=1;align=center;fontSize=16;direction=south;" vertex="1" parent="1">
          <mxGeometry x="-535" y="822" width="76" height="120" as="geometry" />
        </mxCell>
        <mxCell id="2K0EcX-tQgdoXk2rNR8u-198" value="" style="shape=link;html=1;rounded=0;fontSize=12;startSize=8;endSize=8;curved=1;exitX=0;exitY=0.5;exitDx=0;exitDy=0;" edge="1" parent="1" source="2K0EcX-tQgdoXk2rNR8u-194">
          <mxGeometry relative="1" as="geometry">
            <mxPoint x="-179" y="973" as="sourcePoint" />
            <mxPoint x="-441" y="735" as="targetPoint" />
          </mxGeometry>
        </mxCell>
        <mxCell id="2K0EcX-tQgdoXk2rNR8u-199" value="1" style="resizable=0;html=1;whiteSpace=wrap;align=right;verticalAlign=bottom;fontSize=16;" connectable="0" vertex="1" parent="2K0EcX-tQgdoXk2rNR8u-198">
          <mxGeometry x="1" relative="1" as="geometry" />
        </mxCell>
        <mxCell id="2K0EcX-tQgdoXk2rNR8u-213" value="" style="edgeStyle=none;curved=1;rounded=0;orthogonalLoop=1;jettySize=auto;html=1;fontSize=12;startSize=8;endSize=8;" edge="1" parent="1" source="2K0EcX-tQgdoXk2rNR8u-209">
          <mxGeometry relative="1" as="geometry">
            <mxPoint x="37" y="290" as="targetPoint" />
            <Array as="points">
              <mxPoint x="46" y="285" />
            </Array>
          </mxGeometry>
        </mxCell>
        <mxCell id="2K0EcX-tQgdoXk2rNR8u-214" style="edgeStyle=none;curved=1;rounded=0;orthogonalLoop=1;jettySize=auto;html=1;exitX=1;exitY=0;exitDx=0;exitDy=0;entryX=0;entryY=1;entryDx=0;entryDy=0;fontSize=12;startSize=8;endSize=8;" edge="1" parent="1" source="2K0EcX-tQgdoXk2rNR8u-209" target="2K0EcX-tQgdoXk2rNR8u-211">
          <mxGeometry relative="1" as="geometry" />
        </mxCell>
        <mxCell id="2K0EcX-tQgdoXk2rNR8u-215" style="edgeStyle=none;curved=1;rounded=0;orthogonalLoop=1;jettySize=auto;html=1;exitX=1;exitY=0.5;exitDx=0;exitDy=0;entryX=0;entryY=0.5;entryDx=0;entryDy=0;fontSize=12;startSize=8;endSize=8;" edge="1" parent="1" source="2K0EcX-tQgdoXk2rNR8u-209">
          <mxGeometry relative="1" as="geometry">
            <mxPoint x="130.00000000000045" y="372.5" as="targetPoint" />
          </mxGeometry>
        </mxCell>
        <mxCell id="2K0EcX-tQgdoXk2rNR8u-249" value="1" style="edgeStyle=none;curved=1;rounded=0;orthogonalLoop=1;jettySize=auto;html=1;fontSize=12;startSize=8;endSize=8;" edge="1" parent="1" source="2K0EcX-tQgdoXk2rNR8u-209" target="2K0EcX-tQgdoXk2rNR8u-248">
          <mxGeometry relative="1" as="geometry" />
        </mxCell>
        <mxCell id="2K0EcX-tQgdoXk2rNR8u-209" value="Customer&amp;nbsp;" style="whiteSpace=wrap;html=1;align=center;fontSize=16;" vertex="1" parent="1">
          <mxGeometry x="8" y="363.5" width="100" height="40" as="geometry" />
        </mxCell>
        <mxCell id="2K0EcX-tQgdoXk2rNR8u-210" value="CustomerCode" style="ellipse;whiteSpace=wrap;html=1;align=center;fontStyle=4;fontSize=16;" vertex="1" parent="1">
          <mxGeometry x="-18" y="236" width="117" height="51" as="geometry" />
        </mxCell>
        <mxCell id="2K0EcX-tQgdoXk2rNR8u-211" value="Name" style="ellipse;whiteSpace=wrap;html=1;align=center;fontSize=16;" vertex="1" parent="1">
          <mxGeometry x="111" y="276" width="100" height="40" as="geometry" />
        </mxCell>
        <mxCell id="2K0EcX-tQgdoXk2rNR8u-212" value="ContactNumber&amp;nbsp;&amp;nbsp;" style="ellipse;whiteSpace=wrap;html=1;align=center;fontSize=16;" vertex="1" parent="1">
          <mxGeometry x="125" y="353" width="124" height="40" as="geometry" />
        </mxCell>
        <mxCell id="2K0EcX-tQgdoXk2rNR8u-221" value="" style="edgeStyle=none;curved=1;rounded=0;orthogonalLoop=1;jettySize=auto;html=1;fontSize=12;startSize=8;endSize=8;" edge="1" parent="1" source="2K0EcX-tQgdoXk2rNR8u-216" target="2K0EcX-tQgdoXk2rNR8u-219">
          <mxGeometry relative="1" as="geometry" />
        </mxCell>
        <mxCell id="2K0EcX-tQgdoXk2rNR8u-258" style="edgeStyle=none;curved=1;rounded=0;orthogonalLoop=1;jettySize=auto;html=1;entryX=1;entryY=1;entryDx=0;entryDy=0;fontSize=12;startSize=8;endSize=8;" edge="1" parent="1" source="2K0EcX-tQgdoXk2rNR8u-216" target="2K0EcX-tQgdoXk2rNR8u-256">
          <mxGeometry relative="1" as="geometry" />
        </mxCell>
        <mxCell id="2K0EcX-tQgdoXk2rNR8u-260" value="M" style="edgeLabel;html=1;align=center;verticalAlign=middle;resizable=0;points=[];fontSize=16;" vertex="1" connectable="0" parent="2K0EcX-tQgdoXk2rNR8u-258">
          <mxGeometry x="-0.4232" y="1" relative="1" as="geometry">
            <mxPoint as="offset" />
          </mxGeometry>
        </mxCell>
        <mxCell id="2K0EcX-tQgdoXk2rNR8u-216" value="Menu Item" style="whiteSpace=wrap;html=1;align=center;fontSize=16;" vertex="1" parent="1">
          <mxGeometry x="91" y="977" width="100" height="40" as="geometry" />
        </mxCell>
        <mxCell id="2K0EcX-tQgdoXk2rNR8u-223" style="edgeStyle=none;curved=1;rounded=0;orthogonalLoop=1;jettySize=auto;html=1;exitX=0;exitY=1;exitDx=0;exitDy=0;fontSize=12;startSize=8;endSize=8;" edge="1" parent="1" source="2K0EcX-tQgdoXk2rNR8u-217" target="2K0EcX-tQgdoXk2rNR8u-216">
          <mxGeometry relative="1" as="geometry" />
        </mxCell>
        <mxCell id="2K0EcX-tQgdoXk2rNR8u-217" value="ItemCode&amp;nbsp;" style="ellipse;whiteSpace=wrap;html=1;align=center;fontStyle=4;fontSize=16;" vertex="1" parent="1">
          <mxGeometry x="165" y="845" width="99" height="39" as="geometry" />
        </mxCell>
        <mxCell id="2K0EcX-tQgdoXk2rNR8u-222" value="" style="edgeStyle=none;curved=1;rounded=0;orthogonalLoop=1;jettySize=auto;html=1;fontSize=12;startSize=8;endSize=8;" edge="1" parent="1" source="2K0EcX-tQgdoXk2rNR8u-218" target="2K0EcX-tQgdoXk2rNR8u-216">
          <mxGeometry relative="1" as="geometry" />
        </mxCell>
        <mxCell id="2K0EcX-tQgdoXk2rNR8u-218" value="ItemName" style="ellipse;whiteSpace=wrap;html=1;align=center;fontSize=16;direction=west;" vertex="1" parent="1">
          <mxGeometry x="29" y="894" width="100" height="40" as="geometry" />
        </mxCell>
        <mxCell id="2K0EcX-tQgdoXk2rNR8u-219" value="UnitPrice" style="ellipse;whiteSpace=wrap;html=1;align=center;fontSize=16;" vertex="1" parent="1">
          <mxGeometry x="25" y="826" width="100" height="40" as="geometry" />
        </mxCell>
        <mxCell id="2K0EcX-tQgdoXk2rNR8u-224" style="edgeStyle=none;curved=1;rounded=0;orthogonalLoop=1;jettySize=auto;html=1;exitX=0;exitY=1;exitDx=0;exitDy=0;entryX=1;entryY=0;entryDx=0;entryDy=0;fontSize=12;startSize=8;endSize=8;" edge="1" parent="1" target="2K0EcX-tQgdoXk2rNR8u-216">
          <mxGeometry relative="1" as="geometry">
            <mxPoint x="209.64466094067257" y="941.1421356237302" as="sourcePoint" />
          </mxGeometry>
        </mxCell>
        <mxCell id="2K0EcX-tQgdoXk2rNR8u-220" value="Category" style="ellipse;whiteSpace=wrap;html=1;align=center;fontSize=16;" vertex="1" parent="1">
          <mxGeometry x="177" y="899" width="100" height="40" as="geometry" />
        </mxCell>
        <mxCell id="2K0EcX-tQgdoXk2rNR8u-239" value="" style="edgeStyle=none;curved=1;rounded=0;orthogonalLoop=1;jettySize=auto;html=1;fontSize=12;startSize=8;endSize=8;" edge="1" parent="1" source="2K0EcX-tQgdoXk2rNR8u-225" target="2K0EcX-tQgdoXk2rNR8u-226">
          <mxGeometry relative="1" as="geometry" />
        </mxCell>
        <mxCell id="2K0EcX-tQgdoXk2rNR8u-241" style="edgeStyle=none;curved=1;rounded=0;orthogonalLoop=1;jettySize=auto;html=1;exitX=1;exitY=0.5;exitDx=0;exitDy=0;entryX=0;entryY=0.5;entryDx=0;entryDy=0;fontSize=12;startSize=8;endSize=8;" edge="1" parent="1" source="2K0EcX-tQgdoXk2rNR8u-225">
          <mxGeometry relative="1" as="geometry">
            <mxPoint x="349" y="718.0000000000002" as="targetPoint" />
          </mxGeometry>
        </mxCell>
        <mxCell id="2K0EcX-tQgdoXk2rNR8u-242" style="edgeStyle=none;curved=1;rounded=0;orthogonalLoop=1;jettySize=auto;html=1;entryX=0;entryY=0;entryDx=0;entryDy=0;fontSize=12;startSize=8;endSize=8;" edge="1" parent="1" source="2K0EcX-tQgdoXk2rNR8u-248" target="2K0EcX-tQgdoXk2rNR8u-229">
          <mxGeometry relative="1" as="geometry" />
        </mxCell>
        <mxCell id="2K0EcX-tQgdoXk2rNR8u-274" style="edgeStyle=none;curved=1;rounded=0;orthogonalLoop=1;jettySize=auto;html=1;exitX=1;exitY=1;exitDx=0;exitDy=0;fontSize=12;startSize=8;endSize=8;" edge="1" parent="1" source="2K0EcX-tQgdoXk2rNR8u-225" target="2K0EcX-tQgdoXk2rNR8u-275">
          <mxGeometry relative="1" as="geometry">
            <mxPoint x="320.6228332519531" y="795.479996999105" as="targetPoint" />
          </mxGeometry>
        </mxCell>
        <mxCell id="2K0EcX-tQgdoXk2rNR8u-278" value="M" style="edgeLabel;html=1;align=center;verticalAlign=middle;resizable=0;points=[];fontSize=16;" vertex="1" connectable="0" parent="2K0EcX-tQgdoXk2rNR8u-274">
          <mxGeometry x="-0.4403" y="-2" relative="1" as="geometry">
            <mxPoint as="offset" />
          </mxGeometry>
        </mxCell>
        <mxCell id="2K0EcX-tQgdoXk2rNR8u-225" value="Order&amp;nbsp;" style="whiteSpace=wrap;html=1;align=center;fontSize=16;" vertex="1" parent="1">
          <mxGeometry x="157" y="692" width="100" height="40" as="geometry" />
        </mxCell>
        <mxCell id="2K0EcX-tQgdoXk2rNR8u-226" value="OrderID&amp;nbsp;" style="ellipse;whiteSpace=wrap;html=1;align=center;fontStyle=4;fontSize=16;" vertex="1" parent="1">
          <mxGeometry x="194" y="618" width="100" height="40" as="geometry" />
        </mxCell>
        <mxCell id="2K0EcX-tQgdoXk2rNR8u-227" value="DesiredAddress&amp;nbsp;&amp;nbsp;" style="ellipse;whiteSpace=wrap;html=1;align=center;fontSize=16;" vertex="1" parent="1">
          <mxGeometry x="315" y="633" width="100" height="40" as="geometry" />
        </mxCell>
        <mxCell id="2K0EcX-tQgdoXk2rNR8u-228" value="TotalBill" style="ellipse;whiteSpace=wrap;html=1;align=center;fontSize=16;" vertex="1" parent="1">
          <mxGeometry x="335" y="700.5" width="100" height="40" as="geometry" />
        </mxCell>
        <mxCell id="2K0EcX-tQgdoXk2rNR8u-229" value="OrderDateTime&amp;nbsp;&amp;nbsp;" style="ellipse;whiteSpace=wrap;html=1;align=center;fontSize=16;" vertex="1" parent="1">
          <mxGeometry x="150" y="468" width="127" height="58" as="geometry" />
        </mxCell>
        <mxCell id="2K0EcX-tQgdoXk2rNR8u-236" style="edgeStyle=none;curved=1;rounded=0;orthogonalLoop=1;jettySize=auto;html=1;exitX=1;exitY=0.5;exitDx=0;exitDy=0;fontSize=12;startSize=8;endSize=8;" edge="1" parent="1" source="2K0EcX-tQgdoXk2rNR8u-230" target="2K0EcX-tQgdoXk2rNR8u-232">
          <mxGeometry relative="1" as="geometry" />
        </mxCell>
        <mxCell id="2K0EcX-tQgdoXk2rNR8u-276" style="edgeStyle=none;curved=1;rounded=0;orthogonalLoop=1;jettySize=auto;html=1;exitX=0;exitY=0.5;exitDx=0;exitDy=0;entryX=1;entryY=1;entryDx=0;entryDy=0;fontSize=12;startSize=8;endSize=8;" edge="1" parent="1" source="2K0EcX-tQgdoXk2rNR8u-230" target="2K0EcX-tQgdoXk2rNR8u-275">
          <mxGeometry relative="1" as="geometry" />
        </mxCell>
        <mxCell id="2K0EcX-tQgdoXk2rNR8u-277" value="1" style="edgeLabel;html=1;align=center;verticalAlign=middle;resizable=0;points=[];fontSize=16;" vertex="1" connectable="0" parent="2K0EcX-tQgdoXk2rNR8u-276">
          <mxGeometry x="-0.4948" y="-1" relative="1" as="geometry">
            <mxPoint x="1" as="offset" />
          </mxGeometry>
        </mxCell>
        <mxCell id="2K0EcX-tQgdoXk2rNR8u-230" value="Delivery Boy&amp;nbsp;" style="rounded=1;arcSize=10;whiteSpace=wrap;html=1;align=center;fontSize=16;" vertex="1" parent="1">
          <mxGeometry x="467" y="855" width="100" height="40" as="geometry" />
        </mxCell>
        <mxCell id="2K0EcX-tQgdoXk2rNR8u-235" value="" style="edgeStyle=none;curved=1;rounded=0;orthogonalLoop=1;jettySize=auto;html=1;fontSize=12;startSize=8;endSize=8;entryX=0.5;entryY=0;entryDx=0;entryDy=0;" edge="1" parent="1" source="2K0EcX-tQgdoXk2rNR8u-231" target="2K0EcX-tQgdoXk2rNR8u-230">
          <mxGeometry relative="1" as="geometry" />
        </mxCell>
        <mxCell id="2K0EcX-tQgdoXk2rNR8u-231" value="ID" style="ellipse;whiteSpace=wrap;html=1;align=center;fontStyle=4;fontSize=16;" vertex="1" parent="1">
          <mxGeometry x="483" y="765" width="99" height="41" as="geometry" />
        </mxCell>
        <mxCell id="2K0EcX-tQgdoXk2rNR8u-232" value="Name" style="ellipse;whiteSpace=wrap;html=1;align=center;fontSize=16;" vertex="1" parent="1">
          <mxGeometry x="594" y="855" width="100" height="40" as="geometry" />
        </mxCell>
        <mxCell id="2K0EcX-tQgdoXk2rNR8u-233" value="Phone" style="ellipse;whiteSpace=wrap;html=1;align=center;fontSize=16;" vertex="1" parent="1">
          <mxGeometry x="554" y="937" width="100" height="40" as="geometry" />
        </mxCell>
        <mxCell id="2K0EcX-tQgdoXk2rNR8u-234" style="edgeStyle=none;curved=1;rounded=0;orthogonalLoop=1;jettySize=auto;html=1;exitX=0.5;exitY=1;exitDx=0;exitDy=0;fontSize=12;startSize=8;endSize=8;" edge="1" parent="1" source="2K0EcX-tQgdoXk2rNR8u-231" target="2K0EcX-tQgdoXk2rNR8u-231">
          <mxGeometry relative="1" as="geometry" />
        </mxCell>
        <mxCell id="2K0EcX-tQgdoXk2rNR8u-237" style="edgeStyle=none;curved=1;rounded=0;orthogonalLoop=1;jettySize=auto;html=1;exitX=0.5;exitY=1;exitDx=0;exitDy=0;entryX=0.508;entryY=0.003;entryDx=0;entryDy=0;entryPerimeter=0;fontSize=12;startSize=8;endSize=8;" edge="1" parent="1" source="2K0EcX-tQgdoXk2rNR8u-230" target="2K0EcX-tQgdoXk2rNR8u-233">
          <mxGeometry relative="1" as="geometry" />
        </mxCell>
        <mxCell id="2K0EcX-tQgdoXk2rNR8u-240" style="edgeStyle=none;curved=1;rounded=0;orthogonalLoop=1;jettySize=auto;html=1;exitX=1;exitY=0;exitDx=0;exitDy=0;entryX=0.254;entryY=0.923;entryDx=0;entryDy=0;entryPerimeter=0;fontSize=12;startSize=8;endSize=8;" edge="1" parent="1" source="2K0EcX-tQgdoXk2rNR8u-225" target="2K0EcX-tQgdoXk2rNR8u-227">
          <mxGeometry relative="1" as="geometry" />
        </mxCell>
        <mxCell id="2K0EcX-tQgdoXk2rNR8u-248" value="Place" style="rhombus;whiteSpace=wrap;html=1;fontSize=16;" vertex="1" parent="1">
          <mxGeometry x="18" y="503.5" width="80" height="80" as="geometry" />
        </mxCell>
        <mxCell id="2K0EcX-tQgdoXk2rNR8u-252" value="" style="shape=link;html=1;rounded=0;fontSize=12;startSize=8;endSize=8;curved=1;exitX=1;exitY=0.5;exitDx=0;exitDy=0;" edge="1" parent="1" source="2K0EcX-tQgdoXk2rNR8u-248">
          <mxGeometry relative="1" as="geometry">
            <mxPoint x="105" y="681.5" as="sourcePoint" />
            <mxPoint x="173" y="689" as="targetPoint" />
          </mxGeometry>
        </mxCell>
        <mxCell id="2K0EcX-tQgdoXk2rNR8u-253" value="N" style="resizable=0;html=1;whiteSpace=wrap;align=right;verticalAlign=bottom;fontSize=16;" connectable="0" vertex="1" parent="2K0EcX-tQgdoXk2rNR8u-252">
          <mxGeometry x="1" relative="1" as="geometry">
            <mxPoint x="-2" y="-19" as="offset" />
          </mxGeometry>
        </mxCell>
        <mxCell id="2K0EcX-tQgdoXk2rNR8u-256" value="provid" style="rhombus;whiteSpace=wrap;html=1;fontSize=16;" vertex="1" parent="1">
          <mxGeometry x="-198" y="809" width="80" height="80" as="geometry" />
        </mxCell>
        <mxCell id="2K0EcX-tQgdoXk2rNR8u-259" value="1" style="text;html=1;align=center;verticalAlign=middle;resizable=0;points=[];autosize=1;strokeColor=none;fillColor=none;fontSize=16;" vertex="1" parent="1">
          <mxGeometry x="-346" y="739" width="27" height="31" as="geometry" />
        </mxCell>
        <mxCell id="2K0EcX-tQgdoXk2rNR8u-266" value="associated" style="rhombus;whiteSpace=wrap;html=1;fontSize=16;" vertex="1" parent="1">
          <mxGeometry x="-208" y="682" width="171" height="80" as="geometry" />
        </mxCell>
        <mxCell id="2K0EcX-tQgdoXk2rNR8u-269" value="" style="shape=link;html=1;rounded=0;fontSize=12;startSize=8;endSize=8;curved=1;exitX=1;exitY=0.5;exitDx=0;exitDy=0;" edge="1" parent="1" source="2K0EcX-tQgdoXk2rNR8u-266">
          <mxGeometry relative="1" as="geometry">
            <mxPoint x="28" y="736" as="sourcePoint" />
            <mxPoint x="158" y="727" as="targetPoint" />
          </mxGeometry>
        </mxCell>
        <mxCell id="2K0EcX-tQgdoXk2rNR8u-270" value="N" style="resizable=0;html=1;whiteSpace=wrap;align=right;verticalAlign=bottom;fontSize=16;" connectable="0" vertex="1" parent="2K0EcX-tQgdoXk2rNR8u-269">
          <mxGeometry x="1" relative="1" as="geometry" />
        </mxCell>
        <mxCell id="2K0EcX-tQgdoXk2rNR8u-272" style="edgeStyle=none;curved=1;rounded=0;orthogonalLoop=1;jettySize=auto;html=1;exitX=0;exitY=0;exitDx=0;exitDy=0;entryX=0.702;entryY=0.97;entryDx=0;entryDy=0;entryPerimeter=0;fontSize=12;startSize=8;endSize=8;" edge="1" parent="1" source="2K0EcX-tQgdoXk2rNR8u-1" target="2K0EcX-tQgdoXk2rNR8u-174">
          <mxGeometry relative="1" as="geometry" />
        </mxCell>
        <mxCell id="2K0EcX-tQgdoXk2rNR8u-275" value="Deliver" style="shape=rhombus;perimeter=rhombusPerimeter;whiteSpace=wrap;html=1;align=center;fontSize=16;" vertex="1" parent="1">
          <mxGeometry x="281.0028332519531" y="777.999996999105" width="120" height="60" as="geometry" />
        </mxCell>
        <mxCell id="2K0EcX-tQgdoXk2rNR8u-279" value="" style="shape=link;html=1;rounded=0;fontSize=12;startSize=8;endSize=8;curved=1;entryX=0.5;entryY=0;entryDx=0;entryDy=0;exitX=0.5;exitY=1;exitDx=0;exitDy=0;" edge="1" parent="1" source="2K0EcX-tQgdoXk2rNR8u-191" target="2K0EcX-tQgdoXk2rNR8u-176">
          <mxGeometry relative="1" as="geometry">
            <mxPoint x="-387" y="931.14" as="sourcePoint" />
            <mxPoint x="-227" y="931.14" as="targetPoint" />
          </mxGeometry>
        </mxCell>
        <mxCell id="2K0EcX-tQgdoXk2rNR8u-280" value="N" style="resizable=0;html=1;whiteSpace=wrap;align=right;verticalAlign=bottom;fontSize=16;" connectable="0" vertex="1" parent="2K0EcX-tQgdoXk2rNR8u-279">
          <mxGeometry x="1" relative="1" as="geometry" />
        </mxCell>
        <mxCell id="2K0EcX-tQgdoXk2rNR8u-281" style="edgeStyle=none;curved=1;rounded=0;orthogonalLoop=1;jettySize=auto;html=1;exitX=0.5;exitY=0;exitDx=0;exitDy=0;entryX=0.448;entryY=0.436;entryDx=0;entryDy=0;entryPerimeter=0;fontSize=12;startSize=8;endSize=8;" edge="1" parent="1" source="2K0EcX-tQgdoXk2rNR8u-181" target="2K0EcX-tQgdoXk2rNR8u-181">
          <mxGeometry relative="1" as="geometry" />
        </mxCell>
      </root>
    </mxGraphModel>
  </diagram>
</mxfile>
